<svg xmlns="http://www.w3.org/2000/svg" version="1.1" xmlns:xlink="http://www.w3.org/1999/xlink" xmlns:svgjs="http://svgjs.dev/svgjs" width="1000" height="623" viewBox="0 0 1000 623"><g transform="matrix(1,0,0,1,-0.6060606060606233,0.2522267206477977)"><svg viewBox="0 0 396 247" data-background-color="#ffffff" preserveAspectRatio="xMidYMid meet" height="623" width="1000" xmlns="http://www.w3.org/2000/svg" xmlns:xlink="http://www.w3.org/1999/xlink"><g id="tight-bounds" transform="matrix(1,0,0,1,0.2400000000000091,-0.09999999999999432)"><svg viewBox="0 0 395.52 247.2" height="247.2" width="395.52"><g><svg></svg></g><g><svg viewBox="0 0 395.52 247.2" height="247.2" width="395.52"><g transform="matrix(1,0,0,1,75.54432,54.682851373801896)"><svg viewBox="0 0 244.43135999999998 137.8342972523962" height="137.8342972523962" width="244.43135999999998"><g><svg viewBox="0 0 244.43135999999998 137.8342972523962" height="137.8342972523962" width="244.43135999999998"><g><svg viewBox="0 0 244.43135999999998 137.8342972523962" height="137.8342972523962" width="244.43135999999998"><g><svg viewBox="0 0 244.43135999999998 137.8342972523962" height="137.8342972523962" width="244.43135999999998"><g id="textblocktransform"><svg viewBox="0 0 244.43135999999998 137.8342972523962" height="137.8342972523962" width="244.43135999999998" id="textblock"><g><svg viewBox="0 0 244.43135999999998 137.8342972523962" height="137.8342972523962" width="244.43135999999998"><g transform="matrix(1,0,0,1,0,0)"><svg width="244.43135999999998" viewBox="2 -35.29999923706055 62.599998474121094 35.29999923706055" height="137.8342972523962" data-palette-color="#915eff"><path d="M33.55-0.4L33.75-0.4 33.75 0 26.3 0 12.75-17.9 9.95-14.7 9.95-0.8 14.3-0.4 14.3 0 2 0 2-0.4 6.1-0.8 6.1-33.7 2-34.1 2-34.5 14.3-34.5 14.3-34.1 9.95-33.7 9.95-15.6 23.55-31.3Q24.35-32.25 24.35-32.85L24.35-32.85Q24.35-33.35 23.58-33.6 22.8-33.85 20.45-34.1L20.45-34.1 20.45-34.5 30.65-34.5 30.65-34.1Q27.75-33.6 26.73-33.15 25.7-32.7 24.55-31.4L24.55-31.4 15.4-20.9 29.85-2Q30.7-1.05 31.43-0.73 32.15-0.4 33.55-0.4L33.55-0.4ZM47.25-33.95L47.25-0.8 41.85-0.4 41.85 0 56.5 0 56.5-0.4 51.1-0.8 51.1-33.95 58.4-33.95Q59.6-33.95 60.12-33.58 60.65-33.2 61.1-32.05L61.1-32.05 64.2-24.35 64.6-24.45 63.5-35.3 63.2-35.3Q62.1-34.8 61.32-34.65 60.55-34.5 59.35-34.5L59.35-34.5 40.1-34.5Q38.9-34.5 38.12-34.65 37.35-34.8 36.25-35.3L36.25-35.3 35.95-35.3 34-24.45 34.4-24.35 37.85-32.05Q38.35-33.2 38.9-33.58 39.45-33.95 40.65-33.95L40.65-33.95 47.25-33.95Z" opacity="1" transform="matrix(1,0,0,1,0,0)" fill="#915eff" class="undefined-text-0" data-fill-palette-color="primary" id="text-0"></path></svg></g></svg></g></svg></g></svg></g></svg></g></svg></g></svg></g><g><path d="M245.816 0c68.262 0 123.6 55.338 123.6 123.6 0 68.262-55.338 123.6-123.6 123.6-35.242 0-67.04-14.75-89.556-38.413h8.794c21.042 19.956 49.472 32.198 80.762 32.198 64.83 0 117.385-52.555 117.385-117.385 0-64.83-52.555-117.385-117.385-117.385-31.29 0-59.72 12.242-80.762 32.198l-8.794 0c22.516-23.663 54.313-38.413 89.556-38.413z" fill="#915eff" stroke="transparent" data-fill-palette-color="tertiary"></path></g></svg></g><defs></defs></svg><rect width="395.52" height="247.2" fill="none" stroke="none" visibility="hidden"></rect></g></svg></g></svg>