<svg xmlns="http://www.w3.org/2000/svg" version="1.1" xmlns:xlink="http://www.w3.org/1999/xlink" xmlns:svgjs="http://svgjs.dev/svgjs" width="300" height="300" viewBox="0 0 1000 903"><g transform="matrix(1,0,0,1,1.4423076923076792,-1.27764893617001)"><svg viewBox="0 0 156 141" data-background-color="#333333" preserveAspectRatio="xMidYMid meet" height="903" width="1000" xmlns="http://www.w3.org/2000/svg" xmlns:xlink="http://www.w3.org/1999/xlink"><g id="tight-bounds" transform="matrix(1,0,0,1,-0.22499999999999432,0.19949999999997203)"><svg viewBox="0 0 156.44953344827587 140.60052000000002" height="140.60052000000002" width="156.44953344827587"><g><svg viewBox="0 0 156.44953344827587 140.60052000000002" height="140.60052000000002" width="156.44953344827587"><g><svg viewBox="0 0 156.44953344827587 140.60052000000002" height="140.60052000000002" width="156.44953344827587"><g><path d="M0 140.601v-140.601h156.45v140.601z" fill="#7fc37e" stroke="transparent" stroke-width="0" rx="0%" data-fill-palette-color="tertiary"></path><path d="M3.283 137.317v-134.034h149.883v134.034z" fill="#333333" stroke="transparent" stroke-width="0" rx="0%" data-fill-palette-color="quaternary"></path><path d="M9.85 130.751v-120.901h136.75v120.901z" fill="#7fc37e" stroke="transparent" stroke-width="0" data-fill-palette-color="tertiary"></path></g><g transform="matrix(1,0,0,1,19.69974,19.69974)" id="textblocktransform"><svg viewBox="0 0 117.05005344827588 101.20104000000002" height="101.20104000000002" width="117.05005344827588" id="textblock"><g><svg viewBox="0 0 117.05005344827588 101.20104000000002" height="101.20104000000002" width="117.05005344827588"><g transform="matrix(1,0,0,1,0,0)"><svg width="117.05005344827588" viewBox="2 -34.79999923706055 40.25 34.79999923706055" height="101.20104000000002" data-palette-color="#333333"><path d="M7.85 0L2.2 0Q2 0 2-0.25L2-0.25 2.1-34.55Q2.1-34.8 2.3-34.8L2.3-34.8 7.9-34.8Q8.1-34.8 8.1-34.55L8.1-34.55 8.1-22.7 15.95-34.6Q16.1-34.8 16.3-34.8L16.3-34.8 22.05-34.8Q22.25-34.8 22.15-34.6L22.15-34.6 13.5-20.8 23.2-0.2Q23.3 0 22.95 0L22.95 0 16.85 0Q16.6 0 16.55-0.2L16.55-0.2 9.8-14.9 8.05-12.15 8.05-0.25Q8.05 0 7.85 0L7.85 0ZM35.35 0L29.7 0Q29.5 0 29.5-0.25L29.5-0.25 29.5-28.75 23-28.75Q22.75-28.75 22.75-29L22.75-29 22.8-34.6Q22.8-34.8 23-34.8L23-34.8 42-34.8Q42.25-34.8 42.25-34.6L42.25-34.6 42.25-29Q42.25-28.75 42.05-28.75L42.05-28.75 35.5-28.75 35.55-0.25Q35.55 0 35.35 0L35.35 0Z" opacity="1" transform="matrix(1,0,0,1,0,0)" fill="#333333" class="undefined-text-0" data-fill-palette-color="quaternary" id="text-0"></path></svg></g></svg></g></svg></g></svg></g><g></g></svg></g><defs></defs></svg><rect width="156.44953344827587" height="140.60052000000002" fill="none" stroke="none" visibility="hidden"></rect></g></svg></g></svg>